<mxfile host="65bd71144e">
    <diagram id="1ii7Grmnx-tWxM8KSAMK" name="Page-1">
        <mxGraphModel dx="775" dy="496" grid="0" gridSize="10" guides="1" tooltips="1" connect="1" arrows="1" fold="1" page="0" pageScale="1" pageWidth="850" pageHeight="1100" math="0" shadow="0">
            <root>
                <mxCell id="0"/>
                <mxCell id="1" parent="0"/>
                <mxCell id="2" value="" style="edgeStyle=none;html=1;strokeWidth=3;" parent="1" source="3" target="6" edge="1">
                    <mxGeometry relative="1" as="geometry"/>
                </mxCell>
                <mxCell id="3" value="&lt;b&gt;&lt;font style=&quot;font-size: 15px;&quot;&gt;User&lt;/font&gt;&lt;/b&gt;" style="rounded=1;whiteSpace=wrap;html=1;strokeWidth=3;" parent="1" vertex="1">
                    <mxGeometry x="440" y="150" width="120" height="60" as="geometry"/>
                </mxCell>
                <mxCell id="4" value="" style="edgeStyle=none;html=1;strokeWidth=3;" parent="1" source="6" target="8" edge="1">
                    <mxGeometry relative="1" as="geometry"/>
                </mxCell>
                <mxCell id="15" value="&lt;font style=&quot;font-size: 15px;&quot;&gt;query&lt;/font&gt;" style="edgeStyle=none;html=1;exitX=0.323;exitY=1.006;exitDx=0;exitDy=0;exitPerimeter=0;strokeWidth=3;" parent="1" source="6" target="14" edge="1">
                    <mxGeometry x="-0.2959" y="-14" relative="1" as="geometry">
                        <Array as="points">
                            <mxPoint x="479" y="450"/>
                        </Array>
                        <mxPoint as="offset"/>
                    </mxGeometry>
                </mxCell>
                <mxCell id="16" value="&lt;font style=&quot;font-size: 15px;&quot;&gt;genres&lt;/font&gt;" style="edgeStyle=none;html=1;exitX=0.5;exitY=1;exitDx=0;exitDy=0;entryX=0.5;entryY=0;entryDx=0;entryDy=0;strokeWidth=3;" parent="1" source="6" target="11" edge="1">
                    <mxGeometry x="0.4286" relative="1" as="geometry">
                        <Array as="points">
                            <mxPoint x="500" y="510"/>
                        </Array>
                        <mxPoint as="offset"/>
                    </mxGeometry>
                </mxCell>
                <mxCell id="6" value="&lt;font style=&quot;font-size: 15px;&quot;&gt;Home Screen&lt;/font&gt;" style="whiteSpace=wrap;html=1;rounded=1;strokeWidth=3;" parent="1" vertex="1">
                    <mxGeometry x="440" y="290" width="120" height="60" as="geometry"/>
                </mxCell>
                <mxCell id="7" style="edgeStyle=none;html=1;strokeWidth=3;" parent="1" source="8" edge="1">
                    <mxGeometry relative="1" as="geometry">
                        <mxPoint x="435" y="320" as="targetPoint"/>
                    </mxGeometry>
                </mxCell>
                <mxCell id="8" value="&lt;font style=&quot;font-size: 15px;&quot;&gt;Login/ SignUp&lt;/font&gt;" style="whiteSpace=wrap;html=1;rounded=1;strokeWidth=3;" parent="1" vertex="1">
                    <mxGeometry x="240" y="290" width="120" height="60" as="geometry"/>
                </mxCell>
                <mxCell id="9" value="&lt;font style=&quot;font-size: 15px;&quot;&gt;vector search of mongdb&lt;/font&gt;" style="edgeStyle=none;html=1;exitX=1;exitY=0.5;exitDx=0;exitDy=0;entryX=0.5;entryY=1;entryDx=0;entryDy=0;strokeWidth=3;" parent="1" source="11" target="13" edge="1">
                    <mxGeometry x="0.4" y="-5" relative="1" as="geometry">
                        <Array as="points">
                            <mxPoint x="700" y="590"/>
                            <mxPoint x="700" y="460"/>
                        </Array>
                        <mxPoint as="offset"/>
                    </mxGeometry>
                </mxCell>
                <mxCell id="11" value="&lt;font style=&quot;font-size: 15px;&quot;&gt;findSimilarDocument api&lt;br&gt;service using NodeJS&lt;/font&gt;" style="whiteSpace=wrap;html=1;rounded=1;strokeWidth=3;" parent="1" vertex="1">
                    <mxGeometry x="412" y="550" width="178" height="89" as="geometry"/>
                </mxCell>
                <mxCell id="12" style="edgeStyle=none;html=1;entryX=1;entryY=0.5;entryDx=0;entryDy=0;strokeWidth=3;" parent="1" source="13" target="6" edge="1">
                    <mxGeometry relative="1" as="geometry">
                        <Array as="points">
                            <mxPoint x="700" y="320"/>
                        </Array>
                    </mxGeometry>
                </mxCell>
                <mxCell id="13" value="&lt;font style=&quot;font-size: 15px;&quot;&gt;embedded_movies&lt;/font&gt;" style="shape=datastore;whiteSpace=wrap;html=1;fillColor=#60a917;fontColor=#ffffff;strokeColor=#2D7600;strokeWidth=3;" parent="1" vertex="1">
                    <mxGeometry x="645" y="370" width="110" height="121" as="geometry"/>
                </mxCell>
                <mxCell id="18" value="" style="edgeStyle=none;html=1;strokeWidth=3;" parent="1" source="14" target="17" edge="1">
                    <mxGeometry relative="1" as="geometry"/>
                </mxCell>
                <mxCell id="20" value="&lt;font style=&quot;font-size: 15px;&quot;&gt;embeddings&lt;/font&gt;" style="edgeStyle=none;html=1;entryX=-0.013;entryY=0.673;entryDx=0;entryDy=0;entryPerimeter=0;strokeWidth=3;" parent="1" source="14" target="11" edge="1">
                    <mxGeometry x="-0.3163" y="3" relative="1" as="geometry">
                        <Array as="points">
                            <mxPoint x="355" y="605"/>
                        </Array>
                        <mxPoint as="offset"/>
                    </mxGeometry>
                </mxCell>
                <mxCell id="14" value="&lt;font style=&quot;font-size: 15px;&quot;&gt;getEmbedding api&lt;/font&gt;" style="whiteSpace=wrap;html=1;rounded=1;strokeWidth=3;" parent="1" vertex="1">
                    <mxGeometry x="295" y="420" width="120" height="60" as="geometry"/>
                </mxCell>
                <mxCell id="19" style="edgeStyle=none;html=1;strokeWidth=3;" parent="1" source="17" target="14" edge="1">
                    <mxGeometry relative="1" as="geometry"/>
                </mxCell>
                <mxCell id="17" value="&lt;font style=&quot;font-size: 15px;&quot;&gt;OpenAi&lt;/font&gt;" style="whiteSpace=wrap;html=1;rounded=1;fillColor=#6d8764;fontColor=#ffffff;strokeColor=#3A5431;strokeWidth=3;" parent="1" vertex="1">
                    <mxGeometry x="95" y="420" width="120" height="60" as="geometry"/>
                </mxCell>
            </root>
        </mxGraphModel>
    </diagram>
</mxfile>